<svg width="20" height="22" viewBox="0 0 20 22" fill="none" xmlns="http://www.w3.org/2000/svg">
<path fill-rule="evenodd" clip-rule="evenodd" d="M7.9998 1.69999C7.65502 1.69999 7.32436 1.83695 7.08057 2.08075C6.83677 2.32455 6.6998 2.65521 6.6998 2.99999V4.29999H13.2998V2.99999C13.2998 2.65521 13.1628 2.32455 12.919 2.08075C12.6752 1.83695 12.3446 1.69999 11.9998 1.69999H7.9998ZM14.6998 4.29999V2.99999C14.6998 2.2839 14.4153 1.59715 13.909 1.0908C13.4026 0.584451 12.7159 0.299988 11.9998 0.299988H7.9998C7.28372 0.299988 6.59696 0.584451 6.09062 1.0908C5.58427 1.59715 5.2998 2.2839 5.2998 2.99999V4.29999H0.999805C0.613205 4.29999 0.299805 4.61339 0.299805 4.99999C0.299805 5.38659 0.613205 5.69999 0.999805 5.69999H2.2998V19C2.2998 19.7161 2.58427 20.4028 3.09062 20.9092C3.59696 21.4155 4.28372 21.7 4.9998 21.7H14.9998C15.7159 21.7 16.4026 21.4155 16.909 20.9092C17.4153 20.4028 17.6998 19.7161 17.6998 19V5.69999H18.9998C19.3864 5.69999 19.6998 5.38659 19.6998 4.99999C19.6998 4.61339 19.3864 4.29999 18.9998 4.29999H14.6998ZM3.6998 5.69999V19C3.6998 19.3448 3.83677 19.6754 4.08057 19.9192C4.32436 20.163 4.65502 20.3 4.9998 20.3H14.9998C15.3446 20.3 15.6752 20.163 15.919 19.9192C16.1628 19.6754 16.2998 19.3448 16.2998 19V5.69999H3.6998ZM7.9998 9.29999C8.3864 9.29999 8.6998 9.61339 8.6998 9.99999V16C8.6998 16.3866 8.3864 16.7 7.9998 16.7C7.6132 16.7 7.2998 16.3866 7.2998 16V9.99999C7.2998 9.61339 7.6132 9.29999 7.9998 9.29999ZM11.9998 9.29999C12.3864 9.29999 12.6998 9.61339 12.6998 9.99999V16C12.6998 16.3866 12.3864 16.7 11.9998 16.7C11.6132 16.7 11.2998 16.3866 11.2998 16V9.99999C11.2998 9.61339 11.6132 9.29999 11.9998 9.29999Z" fill="#2B2B2B"/>
</svg>
